<mxfile host="app.diagrams.net" modified="2024-05-06T18:22:12.265Z" agent="Mozilla/5.0 (Windows NT 10.0; Win64; x64) AppleWebKit/537.36 (KHTML, like Gecko) Chrome/124.0.0.0 Safari/537.36" etag="H0S4cJcGgZCOUHij3mFg" version="24.3.1" type="google">
  <diagram name="Page-1" id="hqxFnk9IVWzy8n4v6rIc">
    <mxGraphModel grid="0" page="0" gridSize="10" guides="1" tooltips="1" connect="1" arrows="1" fold="1" pageScale="1" pageWidth="850" pageHeight="1100" math="0" shadow="0">
      <root>
        <mxCell id="0" />
        <mxCell id="1" parent="0" />
        <mxCell id="BqHjFBenDN5lYGKLvNmr-6" value="" style="edgeStyle=none;curved=1;rounded=0;orthogonalLoop=1;jettySize=auto;html=1;fontSize=12;startSize=8;endSize=8;" edge="1" parent="1" source="BqHjFBenDN5lYGKLvNmr-1" target="BqHjFBenDN5lYGKLvNmr-5">
          <mxGeometry relative="1" as="geometry" />
        </mxCell>
        <mxCell id="BqHjFBenDN5lYGKLvNmr-1" value="Data Collection" style="rounded=1;whiteSpace=wrap;html=1;" vertex="1" parent="1">
          <mxGeometry x="77" y="-78" width="227" height="53" as="geometry" />
        </mxCell>
        <mxCell id="BqHjFBenDN5lYGKLvNmr-9" value="" style="edgeStyle=none;curved=1;rounded=0;orthogonalLoop=1;jettySize=auto;html=1;fontSize=12;startSize=8;endSize=8;" edge="1" parent="1" source="BqHjFBenDN5lYGKLvNmr-5" target="BqHjFBenDN5lYGKLvNmr-8">
          <mxGeometry relative="1" as="geometry" />
        </mxCell>
        <mxCell id="BqHjFBenDN5lYGKLvNmr-5" value="Data Cleaning and Data Processing" style="rounded=1;whiteSpace=wrap;html=1;" vertex="1" parent="1">
          <mxGeometry x="81" y="10" width="227" height="60" as="geometry" />
        </mxCell>
        <mxCell id="BqHjFBenDN5lYGKLvNmr-11" value="" style="edgeStyle=none;curved=1;rounded=0;orthogonalLoop=1;jettySize=auto;html=1;fontSize=12;startSize=8;endSize=8;" edge="1" parent="1" source="BqHjFBenDN5lYGKLvNmr-8" target="BqHjFBenDN5lYGKLvNmr-10">
          <mxGeometry relative="1" as="geometry" />
        </mxCell>
        <mxCell id="BqHjFBenDN5lYGKLvNmr-8" value="Feature Extraction" style="rounded=1;whiteSpace=wrap;html=1;" vertex="1" parent="1">
          <mxGeometry x="81" y="105" width="227" height="60" as="geometry" />
        </mxCell>
        <mxCell id="BqHjFBenDN5lYGKLvNmr-10" value="Classification and evaluation" style="rounded=1;whiteSpace=wrap;html=1;" vertex="1" parent="1">
          <mxGeometry x="86" y="200" width="227" height="60" as="geometry" />
        </mxCell>
      </root>
    </mxGraphModel>
  </diagram>
</mxfile>
